<?xml version="1.0" encoding="UTF-8"?>
<svg width="108px" height="108px" viewBox="0 0 108 108" version="1.1" xmlns="http://www.w3.org/2000/svg" xmlns:xlink="http://www.w3.org/1999/xlink">
    <title>Android/mipmap-anydpi/ic_launcher_foreground</title>
    <defs>
        <path d="M44,57.2 L22,57.2 C19.5701,57.2 17.6,55.2299 17.6,52.8 L17.6,13.2 C17.6,10.7701 19.5701,8.8 22,8.8 L44,8.8 C46.4299,8.8 48.4,10.7701 48.4,13.2 L48.4,52.8 C48.4,55.2299 46.4299,57.2 44,57.2" id="path-1"></path>
        <polygon id="path-3" points="0 0 53 0 53 52 0 52"></polygon>
        <filter id="filter-5">
            <feColorMatrix in="SourceGraphic" type="matrix" values="0 0 0 0 0.000000 0 0 0 0 0.600000 0 0 0 0 0.000000 0 0 0 1.000000 0"></feColorMatrix>
        </filter>
    </defs>
    <g id="App-icon" stroke="none" stroke-width="1" fill="none" fill-rule="evenodd">
        <g id="Android/">
            <g id="adaptive-icon">
                <g id="foreground">
                    <rect id="Launcher" x="21" y="21" width="66" height="66"></rect>
                    <g id="shape" transform="translate(21.000000, 21.000000)">
                        <mask id="mask-2" fill="white">
                            <use xlink:href="#path-1"></use>
                        </mask>
                        <use id="Fill-2" fill="#FFFFFF" xlink:href="#path-1"></use>
                        <g id="beta-label-android" mask="url(#mask-2)">
                            <g transform="translate(9.000000, 2.000000)">
                                <mask id="mask-4" fill="white">
                                    <use xlink:href="#path-3"></use>
                                </mask>
                                <g id="Mask" stroke="none" fill="none"></g>
                            </g>
                        </g>
                    </g>
                    <g filter="url(#filter-5)" fill="#009900" id="Notification">
                        <g transform="translate(54.000000, 54.000000) scale(-1, 1) translate(-54.000000, -54.000000) translate(42.000000, 42.000000)">
                            <rect fill="none" x="0" y="0" width="24" height="24"></rect>
                            <g id="service-handshake" stroke-width="1" fill="none">
                                <rect id="Rectangle" x="0" y="0" width="24" height="24"></rect>
                                <path d="M20.85,14.24275 C21.0438618,14.4402985 21.0438618,14.7593468 20.85,14.9568953 C20.6558867,15.1482897 20.3466133,15.1482897 20.1525,14.9568953 C19.9586382,14.7593468 19.9586382,14.4402985 20.1525,14.24275 C20.3466133,14.0513555 20.6558867,14.0513555 20.85,14.24275 Z M3.1525,14.24275 C2.9586382,14.4402985 2.9586382,14.7593468 3.1525,14.9568953 C3.34661329,15.1482897 3.65588671,15.1482897 3.85,14.9568953 C4.0438618,14.7593468 4.0438618,14.4402985 3.85,14.24275 C3.65724394,14.0499391 3.34796502,14.0476933 3.1525,14.2376851 L3.1525,14.24275 Z M23,8.51945804 L23,15.6102622 C23,16.4494357 22.3284271,17.1297203 21.5,17.1297203 L19.5,17.1297203 C18.6715729,17.1297203 18,16.4494357 18,15.6102622 L18,15.3139679 L17.545,15.7748702 C17.4353193,16.2513691 17.105831,16.6452115 16.6597956,16.8329683 C16.2137602,17.0207252 15.7057598,16.9794205 15.295,16.721999 C15.0557126,17.2801837 14.5107382,17.639909 13.91,17.6362063 C13.6285201,17.6367062 13.3527363,17.5558847 13.115,17.4032227 C12.9399396,17.8064101 12.6007768,18.112807 12.1853919,18.2430232 C11.7700069,18.3732394 11.3192805,18.3144596 10.95,18.081914 C10.7520336,18.5471999 10.3381447,18.8819199 9.84638076,18.9744322 C9.35461685,19.0669445 8.84968536,18.9050761 8.5,18.5428162 L6.855,16.8764773 L6.0475,16.1167482 L5.9125,16.1167482 C5.70081844,16.7232421 5.1350455,17.1289852 4.5,17.1297203 L2.5,17.1297203 C1.67157288,17.1297203 1,16.4494357 1,15.6102622 L1,8.51945804 C1,7.68028454 1.67157288,7 2.5,7 L4.5,7 C5.32842712,7 6,7.68028454 6,8.51945804 L6,9.02594405 L8.75,9.02594405 L8.75,9.02594405 L9.605,8.18011241 C10.0496482,7.74522333 10.6444232,7.5035002 11.2625,7.50648601 L16,7.50648601 C16.7467626,7.50795204 17.4661406,7.79148968 18.0175,8.30166905 C18.1242271,7.55518586 18.7553884,7.00101168 19.5,7 L21.5,7 C22.3284271,7 23,7.68028454 23,8.51945804 Z M5,8.51945804 C5,8.23973354 4.77614237,8.01297203 4.5,8.01297203 L2.5,8.01297203 C2.22385763,8.01297203 2,8.23973354 2,8.51945804 L2,15.6102622 C2,15.8899867 2.22385763,16.1167482 2.5,16.1167482 L4.5,16.1167482 C4.77614237,16.1167482 5,15.8899867 5,15.6102622 L5,8.51945804 Z M16.5850002,15.4304597 C16.5850002,15.2954699 16.5320098,15.1660224 16.4375,15.0708546 L12.5325,11.1151989 L12.5,11.07468 C12.5,11.07468 12.0575,10.5454021 11.5,10.5454021 L11.4825,10.5454021 L10.785,11.3861689 L10.755,11.4190905 C10.1625,12.0218088 9.54,12.3181031 8.905,12.3181031 C8.8475,12.3181031 8.79,12.3181031 8.735,12.3181031 C8.06062481,12.2248886 7.45205378,11.8595758 7.0475,11.3051311 C6.90525209,11.1013808 6.93071439,10.8230356 7.1075,10.6492317 L7.7325,10.0389161 L6,10.0389161 L6,15.1037762 L6.25,15.1037762 C6.37511545,15.1041656 6.4955403,15.1520568 6.5875,15.237995 L7.555,16.1344752 L9.225,17.8261385 C9.42333814,18.019094 9.73666186,18.019094 9.935,17.8261385 C10.0301276,17.730353 10.0832747,17.5998679 10.0825,17.464001 C10.0826056,17.3290112 10.0295098,17.1995638 9.935,17.104396 L8.955,16.1167482 L10.3675,16.1167482 L11.385,17.1474473 C11.5817514,17.346751 11.9007486,17.346751 12.0975,17.1474473 C12.2942514,16.9481436 12.2942514,16.6250084 12.0975,16.4257047 L10.2925,14.5972902 L11.7075,14.5972902 L12.805,15.709027 L13.555,16.468756 C13.6489787,16.5654228 13.7773147,16.6198549 13.91125,16.6198549 C14.0451853,16.6198549 14.1735213,16.5654228 14.2675,16.468756 C14.3601858,16.3754519 14.4131302,16.2491002 14.415,16.1167482 C14.4157747,15.9808814 14.3626276,15.8503962 14.2675,15.7546107 L12.1325,13.5843182 L13.545,13.5843182 L15.725,15.7900648 C15.8189787,15.8867316 15.9473147,15.9411637 16.08125,15.9411637 C16.2151853,15.9411637 16.3435213,15.8867316 16.4375,15.7900648 C16.5320098,15.694897 16.5850002,15.5654495 16.5850002,15.4304597 Z M18,13.8806125 L18,10.5454021 C18,9.42650409 17.1045695,8.51945543 16,8.51945543 L11.25,8.51945543 C10.8912822,8.51875323 10.5466009,8.66059646 10.29,8.91451713 L8.1625,11.0265638 C8.35239344,11.1818522 8.58236494,11.2785503 8.825,11.3051311 C9.205,11.3355203 9.6125,11.1354583 10.0325,10.7125425 L10.8675,9.69957045 C10.9649272,9.59014625 11.1045683,9.5291275 11.25,9.53243007 L11.5,9.53243007 C12.455,9.53243007 13.1275,10.2643024 13.25,10.4137157 L17.145,14.3440472 C17.2094046,14.4105053 17.2679602,14.4825308 17.32,14.5593037 L18,13.8806125 Z M22,8.51945804 C22,8.23973354 21.7761424,8.01297203 21.5,8.01297203 L19.5,8.01297203 C19.2238576,8.01297203 19,8.23973354 19,8.51945804 L19,15.6102622 C19,15.8899867 19.2238576,16.1167482 19.5,16.1167482 L21.5,16.1167482 C21.7761424,16.1167482 22,15.8899867 22,15.6102622 L22,8.51945804 Z" id="Shape" fill="#FFFFFF" fill-rule="nonzero"></path>
                            </g>
                        </g>
                    </g>
                </g>
            </g>
        </g>
    </g>
</svg>